<?xml version="1.0" encoding="UTF-8" standalone="no"?>
<svg
   xmlns:dc="http://purl.org/dc/elements/1.1/"
   xmlns:cc="http://creativecommons.org/ns#"
   xmlns:rdf="http://www.w3.org/1999/02/22-rdf-syntax-ns#"
   xmlns:svg="http://www.w3.org/2000/svg"
   xmlns="http://www.w3.org/2000/svg"
   id="svg2"
   version="1.1"
   xml:space="preserve"
   width="64"
   height="64"
   viewBox="0 0 64 64"><metadata
     id="metadata8"><rdf:RDF><cc:Work
         rdf:about=""><dc:format>image/svg+xml</dc:format><dc:type
           rdf:resource="http://purl.org/dc/dcmitype/StillImage" /><dc:title></dc:title></cc:Work></rdf:RDF></metadata><defs
     id="defs6" /><g
     id="g4259"
     transform="matrix(0.08389663,0,0,-0.08389663,85.851599,-0.87940975)" /><g
     transform="matrix(0.87840474,0,0,0.87840474,3.8042844,3.7992214)"
     id="g4167"><path
       id="path14"
       style="fill:#212121;fill-opacity:1;fill-rule:nonzero;stroke:none"
       d="m 28.293945,39.633464 c -2.011353,0.892007 -4.172874,1.494871 -6.441569,1.766009 2.315686,-1.388091 4.093891,-3.586002 4.931304,-6.205021 -2.16692,1.285316 -4.567184,2.218706 -7.121815,2.721796 C 12.814768,30.390683 -1.5920604,35.48012 0.55030974,48.145376 3.9030323,65.581058 22.494849,72.36796 22.697588,45.439175 c 2.191115,-1.581246 4.092691,-3.556609 5.596357,-5.805711" /><g
       id="g4160"><path
         style="fill:#212121;fill-opacity:1;stroke:none;stroke-width:0.5;stroke-linejoin:round;stroke-miterlimit:4;stroke-dasharray:none;stroke-opacity:1"
         d="m 32.70181,29.407745 c -0.225914,2.880614 -1.515556,5.557066 -3.549986,7.534545 2.255335,-0.823652 4.320815,-1.96067 6.1634,-3.357425 -0.459865,-0.426377 -2.099738,-0.615518 -2.613414,-4.17712 z"
         id="path4169" /><ellipse
         style="fill:#212121;fill-opacity:1;stroke:none;stroke-width:4;stroke-linejoin:round;stroke-miterlimit:4;stroke-dasharray:none;stroke-opacity:1"
         id="path4167"
         cx="43.888618"
         cy="18.351006"
         rx="19.973675"
         ry="17.605793" /><g
         transform="translate(0,1.0847457)"
         id="g4156"><ellipse
           style="fill:#ffffff;fill-opacity:1;stroke:none;stroke-width:0.5;stroke-linejoin:round;stroke-miterlimit:4;stroke-dasharray:none;stroke-opacity:1"
           id="path4257"
           cx="43.92453"
           cy="26.921642"
           rx="2.7014999"
           ry="2.0054331" /><path
           id="path4274"
           d="m 37.533904,10.42507 c 0.403286,-0.323087 2.774515,-2.2718684 5.879004,-2.4298066 2.642056,-0.1344104 7.351159,0.3734596 7.477484,4.9938656 0.06839,2.50135 -2.135519,3.988896 -3.764971,4.720649 -2.042902,0.917421 -3.328805,2.590117 -3.329153,4.447127"
           style="fill:none;fill-rule:evenodd;stroke:#ffffff;stroke-width:3.11863351;stroke-linecap:butt;stroke-linejoin:miter;stroke-miterlimit:4;stroke-dasharray:none;stroke-opacity:1" /></g></g></g></svg>