<?xml version="1.0" encoding="UTF-8" standalone="no"?>
<svg
   xmlns:dc="http://purl.org/dc/elements/1.1/"
   xmlns:cc="http://creativecommons.org/ns#"
   xmlns:rdf="http://www.w3.org/1999/02/22-rdf-syntax-ns#"
   xmlns:svg="http://www.w3.org/2000/svg"
   xmlns="http://www.w3.org/2000/svg"
   xmlns:sodipodi="http://sodipodi.sourceforge.net/DTD/sodipodi-0.dtd"
   xmlns:inkscape="http://www.inkscape.org/namespaces/inkscape"
   viewBox="0 0 64 64"
   height="64"
   width="64"
   xml:space="preserve"
   version="1.1"
   id="svg2"
   inkscape:version="0.91 r13725"
   sodipodi:docname="twbot.svg"><sodipodi:namedview
     pagecolor="#ffffff"
     bordercolor="#666666"
     borderopacity="1"
     objecttolerance="10"
     gridtolerance="10"
     guidetolerance="10"
     inkscape:pageopacity="0"
     inkscape:pageshadow="2"
     inkscape:window-width="1920"
     inkscape:window-height="1016"
     id="namedview16"
     showgrid="false"
     inkscape:zoom="7.375"
     inkscape:cx="9.8983052"
     inkscape:cy="34.440678"
     inkscape:window-x="0"
     inkscape:window-y="27"
     inkscape:window-maximized="1"
     inkscape:current-layer="svg2" /><metadata
     id="metadata8"><rdf:RDF><cc:Work
         rdf:about=""><dc:format>image/svg+xml</dc:format><dc:type
           rdf:resource="http://purl.org/dc/dcmitype/StillImage" /><dc:title /></cc:Work></rdf:RDF></metadata><defs
     id="defs6" /><g
     transform="matrix(0.08389663,0,0,-0.08389663,85.851599,-0.87940975)"
     id="g4259" /><g
     id="g4167"><path
       d="m 28.293945,39.633464 c -2.011353,0.892007 -4.172874,1.494871 -6.441569,1.766009 2.315686,-1.388091 4.093891,-3.586002 4.931304,-6.205021 -2.16692,1.285316 -4.567184,2.218706 -7.121815,2.721796 C 12.814768,30.390683 -1.5920604,35.48012 0.55030974,48.145376 3.9030323,65.581058 22.494849,72.36796 22.697588,45.439175 c 2.191115,-1.581246 4.092691,-3.556609 5.596357,-5.805711"
       style="fill:#212121;fill-opacity:1;fill-rule:nonzero;stroke:none"
       id="path14"
       inkscape:connector-curvature="0" /><g
       id="g4160"><path
         id="path4169"
         d="m 32.70181,29.407745 c -0.225914,2.880614 -1.515556,5.557066 -3.549986,7.534545 2.255335,-0.823652 4.320815,-1.96067 6.1634,-3.357425 -0.459865,-0.426377 -2.099738,-0.615518 -2.613414,-4.17712 z"
         style="fill:#212121;fill-opacity:1;stroke:none;stroke-width:0.5;stroke-linejoin:round;stroke-miterlimit:4;stroke-dasharray:none;stroke-opacity:1"
         inkscape:connector-curvature="0" /><ellipse
         ry="17.605793"
         rx="19.973675"
         cy="18.351006"
         cx="43.888618"
         id="path4167"
         style="fill:#212121;fill-opacity:1;stroke:none;stroke-width:4;stroke-linejoin:round;stroke-miterlimit:4;stroke-dasharray:none;stroke-opacity:1" /><g
         id="g4156"
         transform="translate(0,1.0847457)"><ellipse
           ry="2.0054331"
           rx="2.7014999"
           cy="26.921642"
           cx="43.92453"
           id="path4257"
           style="fill:#ffffff;fill-opacity:1;stroke:none;stroke-width:0.5;stroke-linejoin:round;stroke-miterlimit:4;stroke-dasharray:none;stroke-opacity:1" /><path
           style="fill:none;fill-rule:evenodd;stroke:#ffffff;stroke-width:3.11863351;stroke-linecap:butt;stroke-linejoin:miter;stroke-miterlimit:4;stroke-dasharray:none;stroke-opacity:1"
           d="m 37.533904,10.42507 c 0.403286,-0.323087 2.774515,-2.2718684 5.879004,-2.4298066 2.642056,-0.1344104 7.351159,0.3734596 7.477484,4.9938656 0.06839,2.50135 -2.135519,3.988896 -3.764971,4.720649 -2.042902,0.917421 -3.328805,2.590117 -3.329153,4.447127"
           id="path4274"
           inkscape:connector-curvature="0" /></g></g></g></svg>